<svg height="511pt" viewBox="0 0 511 511.99973" width="511pt" xmlns="http://www.w3.org/2000/svg"><path d="m75.5 451c8.289062 0 14.996094-6.707031 14.996094-15 0-8.289062-6.707032-15-14.996094-15-24.816406 0-45-20.183594-45-44.996094 0-8.292968-6.710938-15-15-15-8.292969 0-15 6.707032-15 15 0 41.351563 33.644531 74.996094 75 74.996094zm0 0"/><path d="m15.5 331.003906c8.289062 0 15-6.710937 15-15v-60c0-8.289062-6.710938-15-15-15-8.292969 0-15 6.710938-15 15v60c0 8.289063 6.707031 15 15 15zm0 0"/><path d="m15.5 211.007812c8.289062 0 15-6.710937 15-15v-61c0-24.8125 20.183594-45 45-45h70.457031l-48.777343 32.519532c-6.902344 4.601562-8.761719 13.902344-4.160157 20.800781 4.519531 6.792969 13.785157 8.808594 20.800781 4.160156l89.996094-60c8.964844-5.957031 8.550782-19.273437 0-24.957031l-89.996094-60c-6.945312-4.613281-16.21875-2.738281-20.800781 4.160156-4.601562 6.898438-2.742187 16.199219 4.160157 20.800782l48.777343 32.519531h-70.457031c-41.355469 0-75 33.644531-75 74.996093v61c0 8.289063 6.707031 15 15 15zm0 0"/><path d="m195.496094 421h-60c-8.289063 0-15 6.710938-15 15 0 8.292969 6.710937 15 15 15h60c8.289062 0 15-6.707031 15-15 0-8.289062-6.710938-15-15-15zm0 0"/><path d="m467.488281.0117188h-181.996093c-24.8125 0-44.996094 20.1835932-44.996094 45.0000002v59.996093c0 24.8125 20.183594 45 44.996094 45h76v31h-76c-24.8125 0-44.996094 20.183594-44.996094 45v59.996094c0 24.8125 20.183594 45 44.996094 45h76v30h-76c-24.8125 0-44.996094 20.183594-44.996094 45v60.996094c0 24.8125 20.183594 45 44.996094 45h181.996093c24.816407 0 45-20.1875 45-45v-60.996094c0-24.816406-20.183593-45-45-45h-75.996093v-30h75.996093c24.816407 0 45-20.1875 45-45v-59.996094c0-24.816406-20.183593-45-45-45h-75.996093v-31h75.996093c24.816407 0 45-20.1875 45-45v-59.996093c0-24.816407-20.183593-45.0000002-45-45.0000002zm-29.996093 420.9882812c8.289062 0 14.996093 6.710938 14.996093 15 0 8.292969-6.707031 15-14.996093 15h-122c-8.289063 0-15-6.707031-15-15 0-8.289062 6.710937-15 15-15zm0-179.996094c8.289062 0 14.996093 6.710938 14.996093 15 0 8.292969-6.707031 15-14.996093 15h-122c-8.289063 0-15-6.707031-15-15 0-8.289062 6.710937-15 15-15zm0-150.996094h-122c-8.289063 0-15-6.707031-15-15 0-8.289062 6.710937-15 15-15h122c8.289062 0 14.996093 6.710938 14.996093 15 0 8.292969-6.707031 15-14.996093 15zm0 0"/></svg>